<svg version="1.1" viewBox="0.0 0.0 600.0 371.0" fill="none" stroke="none" stroke-linecap="square" stroke-miterlimit="10" width="600" height="371" xmlns:xlink="http://www.w3.org/1999/xlink" xmlns="http://www.w3.org/2000/svg"><path fill="#ffffff" d="M0 0L600.0 0L600.0 371.0L0 371.0L0 0Z" fill-rule="nonzero"/><path stroke="#333333" stroke-width="1.0" stroke-linecap="butt" d="M45.5 290.5L581.5 290.5" fill-rule="nonzero"/><path stroke="#cccccc" stroke-width="1.0" stroke-linecap="butt" d="M45.5 233.5L581.5 233.5" fill-rule="nonzero"/><path stroke="#cccccc" stroke-width="1.0" stroke-linecap="butt" d="M45.5 176.5L581.5 176.5" fill-rule="nonzero"/><path stroke="#cccccc" stroke-width="1.0" stroke-linecap="butt" d="M45.5 119.5L581.5 119.5" fill-rule="nonzero"/><path stroke="#cccccc" stroke-width="1.0" stroke-linecap="butt" d="M45.5 61.5L581.5 61.5" fill-rule="nonzero"/><clipPath id="id_0"><path d="M45.55 61.916668L581.45 61.916668L581.45 290.45L45.55 290.45L45.55 61.916668Z" clip-rule="nonzero"/></clipPath><path stroke="#000000" stroke-width="0.0" stroke-linecap="butt" stroke-opacity="0.0" clip-path="url(#id_0)" d="M131.0 290.0L76.0 290.0L76.0 75.0C76.0 73.89543 76.89543 73.0 78.0 73.0L129.0 73.0C130.10457 73.0 131.0 73.89543 131.0 75.0Z" fill-rule="nonzero"/><path fill="#f4cccc" clip-path="url(#id_0)" d="M131.0 290.0L76.0 290.0L76.0 75.0C76.0 73.89543 76.89543 73.0 78.0 73.0L129.0 73.0C130.10457 73.0 131.0 73.89543 131.0 75.0Z" fill-rule="nonzero"/><path stroke="#000000" stroke-width="0.0" stroke-linecap="butt" stroke-opacity="0.0" clip-path="url(#id_0)" d="M215.0 290.0L160.0 290.0L160.0 281.0C160.0 279.89542 160.89543 279.0 162.0 279.0L213.0 279.0C214.10457 279.0 215.0 279.89542 215.0 281.0Z" fill-rule="nonzero"/><path fill="#f4cccc" clip-path="url(#id_0)" d="M215.0 290.0L160.0 290.0L160.0 281.0C160.0 279.89542 160.89543 279.0 162.0 279.0L213.0 279.0C214.10457 279.0 215.0 279.89542 215.0 281.0Z" fill-rule="nonzero"/><path stroke="#000000" stroke-width="0.0" stroke-linecap="butt" stroke-opacity="0.0" clip-path="url(#id_0)" d="M299.0 290.0L244.0 290.0L244.0 224.0C244.0 222.89543 244.89543 222.0 246.0 222.0L297.0 222.0C298.10458 222.0 299.0 222.89543 299.0 224.0Z" fill-rule="nonzero"/><path fill="#f4cccc" clip-path="url(#id_0)" d="M299.0 290.0L244.0 290.0L244.0 224.0C244.0 222.89543 244.89543 222.0 246.0 222.0L297.0 222.0C298.10458 222.0 299.0 222.89543 299.0 224.0Z" fill-rule="nonzero"/><path stroke="#000000" stroke-width="0.0" stroke-linecap="butt" stroke-opacity="0.0" clip-path="url(#id_0)" d="M384.0 290.0L329.0 290.0L329.0 281.0C329.0 279.89542 329.89542 279.0 331.0 279.0L382.0 279.0C383.10458 279.0 384.0 279.89542 384.0 281.0Z" fill-rule="nonzero"/><path fill="#f4cccc" clip-path="url(#id_0)" d="M384.0 290.0L329.0 290.0L329.0 281.0C329.0 279.89542 329.89542 279.0 331.0 279.0L382.0 279.0C383.10458 279.0 384.0 279.89542 384.0 281.0Z" fill-rule="nonzero"/><path stroke="#000000" stroke-width="0.0" stroke-linecap="butt" stroke-opacity="0.0" clip-path="url(#id_0)" d="M468.0 290.0L413.0 290.0L413.0 258.0C413.0 256.89542 413.89542 256.0 415.0 256.0L466.0 256.0C467.10458 256.0 468.0 256.89542 468.0 258.0Z" fill-rule="nonzero"/><path fill="#f4cccc" clip-path="url(#id_0)" d="M468.0 290.0L413.0 290.0L413.0 258.0C413.0 256.89542 413.89542 256.0 415.0 256.0L466.0 256.0C467.10458 256.0 468.0 256.89542 468.0 258.0Z" fill-rule="nonzero"/><path stroke="#000000" stroke-width="0.0" stroke-linecap="butt" stroke-opacity="0.0" clip-path="url(#id_0)" d="M552.0 290.0L497.0 290.0L497.0 224.0C497.0 222.89543 497.89542 222.0 499.0 222.0L550.0 222.0C551.10455 222.0 552.0 222.89543 552.0 224.0Z" fill-rule="nonzero"/><path fill="#f4cccc" clip-path="url(#id_0)" d="M552.0 290.0L497.0 290.0L497.0 224.0C497.0 222.89543 497.89542 222.0 499.0 222.0L550.0 222.0C551.10455 222.0 552.0 222.89543 552.0 224.0Z" fill-rule="nonzero"/><path fill="#000000" d="M33.05 290.21564Q33.05 288.6844 33.3625 287.7625Q33.675 286.825 34.284374 286.325Q34.909374 285.825 35.846874 285.825Q36.534374 285.825 37.05 286.10626Q37.58125 286.3875 37.925 286.91876Q38.26875 287.4344 38.45625 288.1844Q38.64375 288.9344 38.64375 290.21564Q38.64375 291.73126 38.33125 292.65314Q38.034374 293.575 37.409374 294.09064Q36.8 294.59064 35.846874 294.59064Q34.6125 294.59064 33.89375 293.7Q33.05 292.6375 33.05 290.21564ZM34.128124 290.21564Q34.128124 292.325 34.628124 293.02814Q35.128124 293.73126 35.846874 293.73126Q36.58125 293.73126 37.065624 293.02814Q37.565624 292.325 37.565624 290.21564Q37.565624 288.09064 37.065624 287.40314Q36.58125 286.7 35.83125 286.7Q35.1125 286.7 34.675 287.3094Q34.128124 288.09064 34.128124 290.21564Z" fill-rule="nonzero"/><path fill="#000000" d="M30.01875 237.31667L28.971874 237.31667L28.971874 230.59792Q28.58125 230.95729 27.95625 231.33229Q27.346874 231.69167 26.8625 231.86354L26.8625 230.84792Q27.7375 230.42604 28.39375 229.84792Q29.065624 229.25417 29.346874 228.69167L30.01875 228.69167L30.01875 237.31667ZM33.05 233.08229Q33.05 231.55104 33.3625 230.62917Q33.675 229.69167 34.284374 229.19167Q34.909374 228.69167 35.846874 228.69167Q36.534374 228.69167 37.05 228.97292Q37.58125 229.25417 37.925 229.78542Q38.26875 230.30104 38.45625 231.05104Q38.64375 231.80104 38.64375 233.08229Q38.64375 234.59792 38.33125 235.51979Q38.034374 236.44167 37.409374 236.95729Q36.8 237.45729 35.846874 237.45729Q34.6125 237.45729 33.89375 236.56667Q33.05 235.50417 33.05 233.08229ZM34.128124 233.08229Q34.128124 235.19167 34.628124 235.89479Q35.128124 236.59792 35.846874 236.59792Q36.58125 236.59792 37.065624 235.89479Q37.565624 235.19167 37.565624 233.08229Q37.565624 230.95729 37.065624 230.26979Q36.58125 229.56667 35.83125 229.56667Q35.1125 229.56667 34.675 230.17604Q34.128124 230.95729 34.128124 233.08229Z" fill-rule="nonzero"/><path fill="#000000" d="M31.596874 179.16771L31.596874 180.18333L25.909374 180.18333Q25.909374 179.80833 26.034374 179.44896Q26.253124 178.87083 26.721874 178.30833Q27.20625 177.74583 28.1125 177.01146Q29.51875 175.85521 30.003124 175.18333Q30.503124 174.51146 30.503124 173.91771Q30.503124 173.29271 30.05 172.87083Q29.596874 172.43333 28.878124 172.43333Q28.1125 172.43333 27.659374 172.88646Q27.20625 173.33958 27.190624 174.15208L26.1125 174.04271Q26.221874 172.82396 26.940624 172.19896Q27.675 171.55833 28.909374 171.55833Q30.14375 171.55833 30.8625 172.24583Q31.58125 172.93333 31.58125 173.94896Q31.58125 174.46458 31.3625 174.96458Q31.159374 175.44896 30.659374 176.01146Q30.175 176.55833 29.05 177.51146Q28.096874 178.30833 27.815624 178.60521Q27.55 178.88646 27.378124 179.16771L31.596874 179.16771ZM33.05 175.94896Q33.05 174.41771 33.3625 173.49583Q33.675 172.55833 34.284374 172.05833Q34.909374 171.55833 35.846874 171.55833Q36.534374 171.55833 37.05 171.83958Q37.58125 172.12083 37.925 172.65208Q38.26875 173.16771 38.45625 173.91771Q38.64375 174.66771 38.64375 175.94896Q38.64375 177.46458 38.33125 178.38646Q38.034374 179.30833 37.409374 179.82396Q36.8 180.32396 35.846874 180.32396Q34.6125 180.32396 33.89375 179.43333Q33.05 178.37083 33.05 175.94896ZM34.128124 175.94896Q34.128124 178.05833 34.628124 178.76146Q35.128124 179.46458 35.846874 179.46458Q36.58125 179.46458 37.065624 178.76146Q37.565624 178.05833 37.565624 175.94896Q37.565624 173.82396 37.065624 173.13646Q36.58125 172.43333 35.83125 172.43333Q35.1125 172.43333 34.675 173.04271Q34.128124 173.82396 34.128124 175.94896Z" fill-rule="nonzero"/><path fill="#000000" d="M26.05 120.78438L27.1125 120.64375Q27.284374 121.53438 27.721874 121.94063Q28.159374 122.33125 28.784374 122.33125Q29.534374 122.33125 30.05 121.81563Q30.565624 121.3 30.565624 120.53438Q30.565624 119.81563 30.08125 119.34688Q29.6125 118.8625 28.878124 118.8625Q28.58125 118.8625 28.128124 118.9875L28.253124 118.05Q28.3625 118.06563 28.425 118.06563Q29.096874 118.06563 29.628124 117.72188Q30.175 117.3625 30.175 116.62813Q30.175 116.05 29.784374 115.675Q29.39375 115.28438 28.76875 115.28438Q28.159374 115.28438 27.7375 115.675Q27.33125 116.06563 27.221874 116.83125L26.159374 116.64375Q26.346874 115.59688 27.034374 115.01875Q27.721874 114.425 28.7375 114.425Q29.440624 114.425 30.034374 114.7375Q30.628124 115.03438 30.940624 115.55Q31.253124 116.06563 31.253124 116.65938Q31.253124 117.20625 30.95625 117.675Q30.659374 118.12813 30.08125 118.39375Q30.83125 118.56563 31.253124 119.12813Q31.675 119.675 31.675 120.51875Q31.675 121.64375 30.846874 122.425Q30.034374 123.20625 28.784374 123.20625Q27.659374 123.20625 26.909374 122.53438Q26.159374 121.84688 26.05 120.78438ZM33.05 118.81563Q33.05 117.28438 33.3625 116.3625Q33.675 115.425 34.284374 114.925Q34.909374 114.425 35.846874 114.425Q36.534374 114.425 37.05 114.70625Q37.58125 114.9875 37.925 115.51875Q38.26875 116.03438 38.45625 116.78438Q38.64375 117.53438 38.64375 118.81563Q38.64375 120.33125 38.33125 121.25313Q38.034374 122.175 37.409374 122.69063Q36.8 123.19063 35.846874 123.19063Q34.6125 123.19063 33.89375 122.3Q33.05 121.2375 33.05 118.81563ZM34.128124 118.81563Q34.128124 120.925 34.628124 121.62813Q35.128124 122.33125 35.846874 122.33125Q36.58125 122.33125 37.065624 121.62813Q37.565624 120.925 37.565624 118.81563Q37.565624 116.69063 37.065624 116.00313Q36.58125 115.3 35.83125 115.3Q35.1125 115.3 34.675 115.90938Q34.128124 116.69063 34.128124 118.81563Z" fill-rule="nonzero"/><path fill="#000000" d="M29.425 65.916664L29.425 63.854164L25.70625 63.854164L25.70625 62.885414L29.628124 57.322914L30.4875 57.322914L30.4875 62.885414L31.64375 62.885414L31.64375 63.854164L30.4875 63.854164L30.4875 65.916664L29.425 65.916664ZM29.425 62.885414L29.425 59.02604L26.7375 62.885414L29.425 62.885414ZM33.05 61.68229Q33.05 60.15104 33.3625 59.229164Q33.675 58.291664 34.284374 57.791664Q34.909374 57.291664 35.846874 57.291664Q36.534374 57.291664 37.05 57.572914Q37.58125 57.854164 37.925 58.385414Q38.26875 58.90104 38.45625 59.65104Q38.64375 60.40104 38.64375 61.68229Q38.64375 63.197914 38.33125 64.11979Q38.034374 65.041664 37.409374 65.55729Q36.8 66.05729 35.846874 66.05729Q34.6125 66.05729 33.89375 65.166664Q33.05 64.104164 33.05 61.68229ZM34.128124 61.68229Q34.128124 63.791664 34.628124 64.49479Q35.128124 65.197914 35.846874 65.197914Q36.58125 65.197914 37.065624 64.49479Q37.565624 63.791664 37.565624 61.68229Q37.565624 59.55729 37.065624 58.86979Q36.58125 58.166664 35.83125 58.166664Q35.1125 58.166664 34.675 58.77604Q34.128124 59.55729 34.128124 61.68229Z" fill-rule="nonzero"/><path fill="#000000" d="M69.00012 307.45L72.297 298.85626L73.51575 298.85626L77.03137 307.45L75.75012 307.45L74.7345 304.84064L71.15637 304.84064L70.20325 307.45L69.00012 307.45ZM71.4845 303.91876L74.39075 303.91876L73.50012 301.54376Q73.07825 300.46564 72.89075 299.7625Q72.71887 300.59064 72.422 301.40314L71.4845 303.91876ZM77.81262 309.84064L77.81262 301.23126L78.76575 301.23126L78.76575 302.02814Q79.1095 301.5594 79.53137 301.325Q79.96887 301.09064 80.57825 301.09064Q81.37512 301.09064 81.9845 301.4969Q82.59387 301.90314 82.89075 302.65314Q83.20325 303.40314 83.20325 304.29376Q83.20325 305.2469 82.8595 306.0125Q82.53137 306.77814 81.87512 307.1844Q81.21887 307.59064 80.50012 307.59064Q79.96887 307.59064 79.547 307.3719Q79.12512 307.1375 78.8595 306.8094L78.8595 309.84064L77.81262 309.84064ZM78.76575 304.3719Q78.76575 305.575 79.25012 306.15314Q79.7345 306.71564 80.422 306.71564Q81.12512 306.71564 81.62512 306.1219Q82.12512 305.52814 82.12512 304.27814Q82.12512 303.09064 81.64075 302.5125Q81.15637 301.91876 80.46887 301.91876Q79.797 301.91876 79.28137 302.54376Q78.76575 303.16876 78.76575 304.3719ZM84.81262 309.84064L84.81262 301.23126L85.76575 301.23126L85.76575 302.02814Q86.1095 301.5594 86.53137 301.325Q86.96887 301.09064 87.57825 301.09064Q88.37512 301.09064 88.9845 301.4969Q89.59387 301.90314 89.89075 302.65314Q90.20325 303.40314 90.20325 304.29376Q90.20325 305.2469 89.8595 306.0125Q89.53137 306.77814 88.87512 307.1844Q88.21887 307.59064 87.50012 307.59064Q86.96887 307.59064 86.547 307.3719Q86.12512 307.1375 85.8595 306.8094L85.8595 309.84064L84.81262 309.84064ZM85.76575 304.3719Q85.76575 305.575 86.25012 306.15314Q86.7345 306.71564 87.422 306.71564Q88.12512 306.71564 88.62512 306.1219Q89.12512 305.52814 89.12512 304.27814Q89.12512 303.09064 88.64075 302.5125Q88.15637 301.91876 87.46887 301.91876Q86.797 301.91876 86.28137 302.54376Q85.76575 303.16876 85.76575 304.3719ZM96.06262 305.45L97.15637 305.575Q96.90637 306.52814 96.20325 307.0594Q95.50012 307.59064 94.422 307.59064Q93.06262 307.59064 92.25012 306.7469Q91.45325 305.90314 91.45325 304.3875Q91.45325 302.825 92.26575 301.96564Q93.07825 301.09064 94.3595 301.09064Q95.6095 301.09064 96.39075 301.9344Q97.18762 302.77814 97.18762 304.325Q97.18762 304.41876 97.18762 304.60626L92.547 304.60626Q92.6095 305.6375 93.12512 306.1844Q93.64075 306.71564 94.422 306.71564Q95.00012 306.71564 95.40637 306.41876Q95.82825 306.10626 96.06262 305.45ZM92.6095 303.7469L96.07825 303.7469Q96.01575 302.95 95.68762 302.5594Q95.172 301.95 94.37512 301.95Q93.64075 301.95 93.14075 302.4344Q92.65637 302.91876 92.6095 303.7469ZM102.87512 306.6844Q102.28137 307.1844 101.7345 307.3875Q101.20325 307.59064 100.57825 307.59064Q99.547 307.59064 99.00012 307.09064Q98.45325 306.59064 98.45325 305.8094Q98.45325 305.35626 98.65637 304.98126Q98.8595 304.59064 99.20325 304.3719Q99.547 304.1375 99.96887 304.02814Q100.26575 303.9344 100.90637 303.85626Q102.172 303.71564 102.78137 303.4969Q102.78137 303.27814 102.78137 303.23126Q102.78137 302.575 102.4845 302.3094Q102.07825 301.96564 101.28137 301.96564Q100.547 301.96564 100.18762 302.23126Q99.82825 302.48126 99.65637 303.1375L98.62512 302.9969Q98.76575 302.34064 99.09387 301.9344Q99.422 301.52814 100.03137 301.3094Q100.64075 301.09064 101.43762 301.09064Q102.2345 301.09064 102.7345 301.27814Q103.2345 301.46564 103.46887 301.7469Q103.70325 302.02814 103.797 302.46564Q103.84387 302.73126 103.84387 303.4344L103.84387 304.84064Q103.84387 306.3094 103.90637 306.7Q103.9845 307.09064 104.18762 307.45L103.07825 307.45Q102.922 307.1219 102.87512 306.6844ZM102.78137 304.325Q102.20325 304.5594 101.06262 304.73126Q100.40637 304.825 100.14075 304.95Q99.87512 305.0594 99.71887 305.27814Q99.57825 305.4969 99.57825 305.77814Q99.57825 306.2 99.89075 306.48126Q100.21887 306.7625 100.82825 306.7625Q101.43762 306.7625 101.90637 306.4969Q102.39075 306.23126 102.6095 305.7625Q102.78137 305.40314 102.78137 304.71564L102.78137 304.325ZM105.797 307.45L105.797 301.23126L106.75012 301.23126L106.75012 302.16876Q107.1095 301.5125 107.40637 301.3094Q107.71887 301.09064 108.09387 301.09064Q108.62512 301.09064 109.172 301.41876L108.81262 302.40314Q108.422 302.16876 108.047 302.16876Q107.68762 302.16876 107.40637 302.3875Q107.14075 302.59064 107.03137 302.96564Q106.84387 303.52814 106.84387 304.1844L106.84387 307.45L105.797 307.45ZM113.87512 306.6844Q113.28137 307.1844 112.7345 307.3875Q112.20325 307.59064 111.57825 307.59064Q110.547 307.59064 110.00012 307.09064Q109.45325 306.59064 109.45325 305.8094Q109.45325 305.35626 109.65637 304.98126Q109.8595 304.59064 110.20325 304.3719Q110.547 304.1375 110.96887 304.02814Q111.26575 303.9344 111.90637 303.85626Q113.172 303.71564 113.78137 303.4969Q113.78137 303.27814 113.78137 303.23126Q113.78137 302.575 113.4845 302.3094Q113.07825 301.96564 112.28137 301.96564Q111.547 301.96564 111.18762 302.23126Q110.82825 302.48126 110.65637 303.1375L109.62512 302.9969Q109.76575 302.34064 110.09387 301.9344Q110.422 301.52814 111.03137 301.3094Q111.64075 301.09064 112.43762 301.09064Q113.2345 301.09064 113.7345 301.27814Q114.2345 301.46564 114.46887 301.7469Q114.70325 302.02814 114.797 302.46564Q114.84387 302.73126 114.84387 303.4344L114.84387 304.84064Q114.84387 306.3094 114.90637 306.7Q114.9845 307.09064 115.18762 307.45L114.07825 307.45Q113.922 307.1219 113.87512 306.6844ZM113.78137 304.325Q113.20325 304.5594 112.06262 304.73126Q111.40637 304.825 111.14075 304.95Q110.87512 305.0594 110.71887 305.27814Q110.57825 305.4969 110.57825 305.77814Q110.57825 306.2 110.89075 306.48126Q111.21887 306.7625 111.82825 306.7625Q112.43762 306.7625 112.90637 306.4969Q113.39075 306.23126 113.6095 305.7625Q113.78137 305.40314 113.78137 304.71564L113.78137 304.325ZM116.81262 307.45L116.81262 301.23126L117.75012 301.23126L117.75012 302.10626Q118.43762 301.09064 119.7345 301.09064Q120.297 301.09064 120.76575 301.29376Q121.25012 301.4969 121.4845 301.825Q121.71887 302.15314 121.81262 302.59064Q121.8595 302.8875 121.8595 303.6219L121.8595 307.45L120.81262 307.45L120.81262 303.66876Q120.81262 303.0125 120.68762 302.7Q120.56262 302.3875 120.25012 302.2Q119.93762 301.9969 119.51575 301.9969Q118.84387 301.9969 118.34387 302.4344Q117.8595 302.85626 117.8595 304.04376L117.8595 307.45L116.81262 307.45ZM127.87512 305.16876L128.90637 305.3094Q128.7345 306.3719 128.03137 306.98126Q127.32825 307.59064 126.31262 307.59064Q125.03137 307.59064 124.25012 306.7625Q123.4845 305.91876 123.4845 304.35626Q123.4845 303.35626 123.81262 302.60626Q124.15637 301.84064 124.82825 301.46564Q125.51575 301.09064 126.32825 301.09064Q127.32825 301.09064 127.96887 301.60626Q128.62512 302.10626 128.81262 303.0594L127.78137 303.21564Q127.64075 302.59064 127.26575 302.27814Q126.89075 301.95 126.3595 301.95Q125.56262 301.95 125.06262 302.52814Q124.56262 303.09064 124.56262 304.325Q124.56262 305.59064 125.047 306.15314Q125.53137 306.71564 126.297 306.71564Q126.922 306.71564 127.32825 306.34064Q127.75012 305.96564 127.87512 305.16876ZM134.06262 305.45L135.15637 305.575Q134.90637 306.52814 134.20325 307.0594Q133.50012 307.59064 132.422 307.59064Q131.06262 307.59064 130.25012 306.7469Q129.45325 305.90314 129.45325 304.3875Q129.45325 302.825 130.26575 301.96564Q131.07825 301.09064 132.3595 301.09064Q133.6095 301.09064 134.39075 301.9344Q135.18762 302.77814 135.18762 304.325Q135.18762 304.41876 135.18762 304.60626L130.547 304.60626Q130.6095 305.6375 131.12512 306.1844Q131.64075 306.71564 132.422 306.71564Q133.00012 306.71564 133.40637 306.41876Q133.82825 306.10626 134.06262 305.45ZM130.6095 303.7469L134.07825 303.7469Q134.01575 302.95 133.68762 302.5594Q133.172 301.95 132.37512 301.95Q131.64075 301.95 131.14075 302.4344Q130.65637 302.91876 130.6095 303.7469Z" fill-rule="nonzero"/><path fill="#000000" d="M159.78445 307.45L159.78445 298.85626L160.92508 298.85626L160.92508 306.4344L165.15945 306.4344L165.15945 307.45L159.78445 307.45ZM170.76883 306.6844Q170.17508 307.1844 169.6282 307.3875Q169.09695 307.59064 168.47195 307.59064Q167.4407 307.59064 166.89383 307.09064Q166.34695 306.59064 166.34695 305.8094Q166.34695 305.35626 166.55008 304.98126Q166.7532 304.59064 167.09695 304.3719Q167.4407 304.1375 167.86258 304.02814Q168.15945 303.9344 168.80008 303.85626Q170.0657 303.71564 170.67508 303.4969Q170.67508 303.27814 170.67508 303.23126Q170.67508 302.575 170.3782 302.3094Q169.97195 301.96564 169.17508 301.96564Q168.4407 301.96564 168.08133 302.23126Q167.72195 302.48126 167.55008 303.1375L166.51883 302.9969Q166.65945 302.34064 166.98758 301.9344Q167.3157 301.52814 167.92508 301.3094Q168.53445 301.09064 169.33133 301.09064Q170.1282 301.09064 170.6282 301.27814Q171.1282 301.46564 171.36258 301.7469Q171.59695 302.02814 171.6907 302.46564Q171.73758 302.73126 171.73758 303.4344L171.73758 304.84064Q171.73758 306.3094 171.80008 306.7Q171.8782 307.09064 172.08133 307.45L170.97195 307.45Q170.8157 307.1219 170.76883 306.6844ZM170.67508 304.325Q170.09695 304.5594 168.95633 304.73126Q168.30008 304.825 168.03445 304.95Q167.76883 305.0594 167.61258 305.27814Q167.47195 305.4969 167.47195 305.77814Q167.47195 306.2 167.78445 306.48126Q168.11258 306.7625 168.72195 306.7625Q169.33133 306.7625 169.80008 306.4969Q170.28445 306.23126 170.5032 305.7625Q170.67508 305.40314 170.67508 304.71564L170.67508 304.325ZM173.70633 307.45L173.70633 301.23126L174.64383 301.23126L174.64383 302.10626Q175.33133 301.09064 176.6282 301.09064Q177.1907 301.09064 177.65945 301.29376Q178.14383 301.4969 178.3782 301.825Q178.61258 302.15314 178.70633 302.59064Q178.7532 302.8875 178.7532 303.6219L178.7532 307.45L177.70633 307.45L177.70633 303.66876Q177.70633 303.0125 177.58133 302.7Q177.45633 302.3875 177.14383 302.2Q176.83133 301.9969 176.40945 301.9969Q175.73758 301.9969 175.23758 302.4344Q174.7532 302.85626 174.7532 304.04376L174.7532 307.45L173.70633 307.45ZM180.5032 307.96564L181.53445 308.1219Q181.59695 308.59064 181.89383 308.8094Q182.28445 309.10626 182.95633 309.10626Q183.6907 309.10626 184.08133 308.8094Q184.48758 308.5125 184.6282 307.9969Q184.72195 307.66876 184.70633 306.6375Q184.01883 307.45 182.98758 307.45Q181.70633 307.45 181.0032 306.52814Q180.30008 305.59064 180.30008 304.3094Q180.30008 303.41876 180.61258 302.66876Q180.9407 301.90314 181.55008 301.4969Q182.15945 301.09064 182.98758 301.09064Q184.09695 301.09064 184.8157 301.98126L184.8157 301.23126L185.78445 301.23126L185.78445 306.60626Q185.78445 308.0594 185.48758 308.66876Q185.1907 309.27814 184.55008 309.6219Q183.90945 309.98126 182.97195 309.98126Q181.86258 309.98126 181.17508 309.48126Q180.48758 308.98126 180.5032 307.96564ZM181.3782 304.23126Q181.3782 305.45 181.86258 306.0125Q182.34695 306.575 183.08133 306.575Q183.8157 306.575 184.30008 306.0125Q184.80008 305.45 184.80008 304.2625Q184.80008 303.1219 184.28445 302.54376Q183.78445 301.96564 183.0657 301.96564Q182.36258 301.96564 181.86258 302.54376Q181.3782 303.10626 181.3782 304.23126ZM191.78445 307.45L191.78445 306.52814Q191.05008 307.59064 189.80008 307.59064Q189.2532 307.59064 188.76883 307.3875Q188.30008 307.16876 188.0657 306.85626Q187.83133 306.52814 187.73758 306.0594Q187.67508 305.7625 187.67508 305.075L187.67508 301.23126L188.73758 301.23126L188.73758 304.6844Q188.73758 305.4969 188.80008 305.79376Q188.89383 306.2 189.20633 306.45Q189.53445 306.6844 190.01883 306.6844Q190.48758 306.6844 190.89383 306.45Q191.3157 306.2 191.48758 305.77814Q191.67508 305.35626 191.67508 304.5594L191.67508 301.23126L192.72195 301.23126L192.72195 307.45L191.78445 307.45ZM198.76883 306.6844Q198.17508 307.1844 197.6282 307.3875Q197.09695 307.59064 196.47195 307.59064Q195.4407 307.59064 194.89383 307.09064Q194.34695 306.59064 194.34695 305.8094Q194.34695 305.35626 194.55008 304.98126Q194.7532 304.59064 195.09695 304.3719Q195.4407 304.1375 195.86258 304.02814Q196.15945 303.9344 196.80008 303.85626Q198.0657 303.71564 198.67508 303.4969Q198.67508 303.27814 198.67508 303.23126Q198.67508 302.575 198.3782 302.3094Q197.97195 301.96564 197.17508 301.96564Q196.4407 301.96564 196.08133 302.23126Q195.72195 302.48126 195.55008 303.1375L194.51883 302.9969Q194.65945 302.34064 194.98758 301.9344Q195.3157 301.52814 195.92508 301.3094Q196.53445 301.09064 197.33133 301.09064Q198.1282 301.09064 198.6282 301.27814Q199.1282 301.46564 199.36258 301.7469Q199.59695 302.02814 199.6907 302.46564Q199.73758 302.73126 199.73758 303.4344L199.73758 304.84064Q199.73758 306.3094 199.80008 306.7Q199.8782 307.09064 200.08133 307.45L198.97195 307.45Q198.8157 307.1219 198.76883 306.6844ZM198.67508 304.325Q198.09695 304.5594 196.95633 304.73126Q196.30008 304.825 196.03445 304.95Q195.76883 305.0594 195.61258 305.27814Q195.47195 305.4969 195.47195 305.77814Q195.47195 306.2 195.78445 306.48126Q196.11258 306.7625 196.72195 306.7625Q197.33133 306.7625 197.80008 306.4969Q198.28445 306.23126 198.5032 305.7625Q198.67508 305.40314 198.67508 304.71564L198.67508 304.325ZM201.5032 307.96564L202.53445 308.1219Q202.59695 308.59064 202.89383 308.8094Q203.28445 309.10626 203.95633 309.10626Q204.6907 309.10626 205.08133 308.8094Q205.48758 308.5125 205.6282 307.9969Q205.72195 307.66876 205.70633 306.6375Q205.01883 307.45 203.98758 307.45Q202.70633 307.45 202.0032 306.52814Q201.30008 305.59064 201.30008 304.3094Q201.30008 303.41876 201.61258 302.66876Q201.9407 301.90314 202.55008 301.4969Q203.15945 301.09064 203.98758 301.09064Q205.09695 301.09064 205.8157 301.98126L205.8157 301.23126L206.78445 301.23126L206.78445 306.60626Q206.78445 308.0594 206.48758 308.66876Q206.1907 309.27814 205.55008 309.6219Q204.90945 309.98126 203.97195 309.98126Q202.86258 309.98126 202.17508 309.48126Q201.48758 308.98126 201.5032 307.96564ZM202.3782 304.23126Q202.3782 305.45 202.86258 306.0125Q203.34695 306.575 204.08133 306.575Q204.8157 306.575 205.30008 306.0125Q205.80008 305.45 205.80008 304.2625Q205.80008 303.1219 205.28445 302.54376Q204.78445 301.96564 204.0657 301.96564Q203.36258 301.96564 202.86258 302.54376Q202.3782 303.10626 202.3782 304.23126ZM212.95633 305.45L214.05008 305.575Q213.80008 306.52814 213.09695 307.0594Q212.39383 307.59064 211.3157 307.59064Q209.95633 307.59064 209.14383 306.7469Q208.34695 305.90314 208.34695 304.3875Q208.34695 302.825 209.15945 301.96564Q209.97195 301.09064 211.2532 301.09064Q212.5032 301.09064 213.28445 301.9344Q214.08133 302.77814 214.08133 304.325Q214.08133 304.41876 214.08133 304.60626L209.4407 304.60626Q209.5032 305.6375 210.01883 306.1844Q210.53445 306.71564 211.3157 306.71564Q211.89383 306.71564 212.30008 306.41876Q212.72195 306.10626 212.95633 305.45ZM209.5032 303.7469L212.97195 303.7469Q212.90945 302.95 212.58133 302.5594Q212.0657 301.95 211.26883 301.95Q210.53445 301.95 210.03445 302.4344Q209.55008 302.91876 209.5032 303.7469Z" fill-rule="nonzero"/><path fill="#000000" d="M252.24065 307.45L252.24065 298.85626L256.05316 298.85626Q257.2094 298.85626 257.80316 299.09064Q258.3969 299.325 258.7563 299.91876Q259.11566 300.4969 259.11566 301.2Q259.11566 302.1219 258.5219 302.7469Q257.92816 303.3719 256.6938 303.54376Q257.1469 303.7625 257.3813 303.96564Q257.8813 304.41876 258.3188 305.10626L259.8188 307.45L258.3813 307.45L257.2563 305.66876Q256.7563 304.8875 256.42816 304.48126Q256.11566 304.075 255.85002 303.91876Q255.60002 303.7469 255.3344 303.66876Q255.1469 303.6375 254.7094 303.6375L253.38127 303.6375L253.38127 307.45L252.24065 307.45ZM253.38127 302.65314L255.8344 302.65314Q256.60004 302.65314 257.03754 302.4969Q257.49066 302.325 257.7094 301.98126Q257.9438 301.6219 257.9438 301.2Q257.9438 300.59064 257.49066 300.2Q257.05316 299.8094 256.10004 299.8094L253.38127 299.8094L253.38127 302.65314ZM265.35004 305.45L266.4438 305.575Q266.1938 306.52814 265.49066 307.0594Q264.78754 307.59064 263.7094 307.59064Q262.35004 307.59064 261.53754 306.7469Q260.74066 305.90314 260.74066 304.3875Q260.74066 302.825 261.55316 301.96564Q262.36566 301.09064 263.6469 301.09064Q264.8969 301.09064 265.67816 301.9344Q266.47504 302.77814 266.47504 304.325Q266.47504 304.41876 266.47504 304.60626L261.8344 304.60626Q261.8969 305.6375 262.41254 306.1844Q262.92816 306.71564 263.7094 306.71564Q264.28754 306.71564 264.6938 306.41876Q265.11566 306.10626 265.35004 305.45ZM261.8969 303.7469L265.36566 303.7469Q265.30316 302.95 264.97504 302.5594Q264.4594 301.95 263.66254 301.95Q262.92816 301.95 262.42816 302.4344Q261.9438 302.91876 261.8969 303.7469ZM267.8969 307.96564L268.92816 308.1219Q268.99066 308.59064 269.28754 308.8094Q269.67816 309.10626 270.35004 309.10626Q271.0844 309.10626 271.47504 308.8094Q271.8813 308.5125 272.0219 307.9969Q272.11566 307.66876 272.10004 306.6375Q271.41254 307.45 270.3813 307.45Q269.10004 307.45 268.3969 306.52814Q267.6938 305.59064 267.6938 304.3094Q267.6938 303.41876 268.0063 302.66876Q268.3344 301.90314 268.9438 301.4969Q269.55316 301.09064 270.3813 301.09064Q271.49066 301.09064 272.2094 301.98126L272.2094 301.23126L273.17816 301.23126L273.17816 306.60626Q273.17816 308.0594 272.8813 308.66876Q272.5844 309.27814 271.9438 309.6219Q271.30316 309.98126 270.36566 309.98126Q269.2563 309.98126 268.5688 309.48126Q267.8813 308.98126 267.8969 307.96564ZM268.7719 304.23126Q268.7719 305.45 269.2563 306.0125Q269.74066 306.575 270.47504 306.575Q271.2094 306.575 271.6938 306.0125Q272.1938 305.45 272.1938 304.2625Q272.1938 303.1219 271.67816 302.54376Q271.17816 301.96564 270.4594 301.96564Q269.7563 301.96564 269.2563 302.54376Q268.7719 303.10626 268.7719 304.23126ZM275.10004 300.075L275.10004 298.85626L276.16254 298.85626L276.16254 300.075L275.10004 300.075ZM275.10004 307.45L275.10004 301.23126L276.16254 301.23126L276.16254 307.45L275.10004 307.45ZM277.7094 304.34064Q277.7094 302.60626 278.66254 301.77814Q279.4594 301.09064 280.61566 301.09064Q281.8969 301.09064 282.7094 301.9344Q283.53754 302.7625 283.53754 304.2469Q283.53754 305.45 283.17816 306.1375Q282.8188 306.825 282.11566 307.21564Q281.42816 307.59064 280.61566 307.59064Q279.3188 307.59064 278.5063 306.7625Q277.7094 305.91876 277.7094 304.34064ZM278.78754 304.34064Q278.78754 305.52814 279.30316 306.1219Q279.8344 306.71564 280.61566 306.71564Q281.41254 306.71564 281.92816 306.1219Q282.4438 305.52814 282.4438 304.3094Q282.4438 303.15314 281.91254 302.5594Q281.3969 301.96564 280.61566 301.96564Q279.8344 301.96564 279.30316 302.5594Q278.78754 303.1375 278.78754 304.34064ZM285.10004 307.45L285.10004 301.23126L286.03754 301.23126L286.03754 302.10626Q286.72504 301.09064 288.0219 301.09064Q288.5844 301.09064 289.05316 301.29376Q289.53754 301.4969 289.7719 301.825Q290.0063 302.15314 290.10004 302.59064Q290.1469 302.8875 290.1469 303.6219L290.1469 307.45L289.10004 307.45L289.10004 303.66876Q289.10004 303.0125 288.97504 302.7Q288.85004 302.3875 288.53754 302.2Q288.22504 301.9969 287.80316 301.9969Q287.1313 301.9969 286.6313 302.4344Q286.1469 302.85626 286.1469 304.04376L286.1469 307.45L285.10004 307.45Z" fill-rule="nonzero"/><path fill="#000000" d="M338.6812 307.45L338.6812 298.85626L344.4781 298.85626L344.4781 299.8719L339.82184 299.8719L339.82184 302.52814L343.8531 302.52814L343.8531 303.54376L339.82184 303.54376L339.82184 307.45L338.6812 307.45ZM349.5562 306.6844Q348.96246 307.1844 348.4156 307.3875Q347.88434 307.59064 347.25934 307.59064Q346.2281 307.59064 345.6812 307.09064Q345.13434 306.59064 345.13434 305.8094Q345.13434 305.35626 345.33746 304.98126Q345.5406 304.59064 345.88434 304.3719Q346.2281 304.1375 346.64996 304.02814Q346.94684 303.9344 347.58746 303.85626Q348.8531 303.71564 349.46246 303.4969Q349.46246 303.27814 349.46246 303.23126Q349.46246 302.575 349.1656 302.3094Q348.75934 301.96564 347.96246 301.96564Q347.2281 301.96564 346.8687 302.23126Q346.50934 302.48126 346.33746 303.1375L345.3062 302.9969Q345.44684 302.34064 345.77496 301.9344Q346.1031 301.52814 346.71246 301.3094Q347.32184 301.09064 348.1187 301.09064Q348.9156 301.09064 349.4156 301.27814Q349.9156 301.46564 350.14996 301.7469Q350.38434 302.02814 350.4781 302.46564Q350.52496 302.73126 350.52496 303.4344L350.52496 304.84064Q350.52496 306.3094 350.58746 306.7Q350.6656 307.09064 350.8687 307.45L349.75934 307.45Q349.6031 307.1219 349.5562 306.6844ZM349.46246 304.325Q348.88434 304.5594 347.7437 304.73126Q347.08746 304.825 346.82184 304.95Q346.5562 305.0594 346.39996 305.27814Q346.25934 305.4969 346.25934 305.77814Q346.25934 306.2 346.57184 306.48126Q346.89996 306.7625 347.50934 306.7625Q348.1187 306.7625 348.58746 306.4969Q349.07184 306.23126 349.2906 305.7625Q349.46246 305.40314 349.46246 304.71564L349.46246 304.325ZM352.4937 307.45L352.4937 301.23126L353.4312 301.23126L353.4312 302.10626Q353.7281 301.6375 354.21246 301.3719Q354.69684 301.09064 355.32184 301.09064Q356.00934 301.09064 356.44684 301.3719Q356.89996 301.65314 357.07184 302.16876Q357.82184 301.09064 358.9937 301.09064Q359.9312 301.09064 360.4156 301.60626Q360.9156 302.10626 360.9156 303.1844L360.9156 307.45L359.8687 307.45L359.8687 303.52814Q359.8687 302.90314 359.75934 302.6219Q359.6656 302.34064 359.39996 302.16876Q359.13434 301.9969 358.75934 301.9969Q358.1031 301.9969 357.6656 302.4344Q357.2437 302.8719 357.2437 303.84064L357.2437 307.45L356.1812 307.45L356.1812 303.40314Q356.1812 302.7 355.9156 302.35626Q355.6656 301.9969 355.08746 301.9969Q354.63434 301.9969 354.25934 302.23126Q353.88434 302.46564 353.71246 302.91876Q353.5406 303.3719 353.5406 304.21564L353.5406 307.45L352.4937 307.45ZM362.4937 300.075L362.4937 298.85626L363.5562 298.85626L363.5562 300.075L362.4937 300.075ZM362.4937 307.45L362.4937 301.23126L363.5562 301.23126L363.5562 307.45L362.4937 307.45ZM365.46246 307.45L365.46246 298.85626L366.52496 298.85626L366.52496 307.45L365.46246 307.45ZM368.44684 309.84064L368.32184 308.85626Q368.6656 308.95 368.9312 308.95Q369.27496 308.95 369.4781 308.825Q369.69684 308.71564 369.83746 308.5125Q369.9312 308.34064 370.1656 307.71564Q370.1812 307.6375 370.25934 307.46564L367.88434 301.23126L369.02496 301.23126L370.32184 304.825Q370.57184 305.5125 370.77496 306.27814Q370.96246 305.54376 371.21246 304.85626L372.5406 301.23126L373.58746 301.23126L371.2281 307.5594Q370.83746 308.575 370.63434 308.96564Q370.3531 309.4969 369.9781 309.73126Q369.6187 309.98126 369.1187 309.98126Q368.82184 309.98126 368.44684 309.84064Z" fill-rule="nonzero"/><path fill="#000000" d="M425.66867 303.2625Q425.66867 301.1219 426.8093 299.91876Q427.96555 298.7 429.77805 298.7Q430.98117 298.7 431.9343 299.27814Q432.88742 299.84064 433.38742 300.85626Q433.88742 301.8719 433.88742 303.16876Q433.88742 304.46564 433.35617 305.4969Q432.82492 306.52814 431.85617 307.0594Q430.90305 307.59064 429.77805 307.59064Q428.5593 307.59064 427.60617 307.0125Q426.65305 306.41876 426.15305 305.41876Q425.66867 304.40314 425.66867 303.2625ZM426.84055 303.27814Q426.84055 304.84064 427.66867 305.73126Q428.51242 306.6219 429.77805 306.6219Q431.0593 306.6219 431.88742 305.73126Q432.71555 304.825 432.71555 303.15314Q432.71555 302.10626 432.35617 301.325Q432.01242 300.54376 431.32492 300.1219Q430.63742 299.6844 429.79367 299.6844Q428.59055 299.6844 427.71555 300.5125Q426.84055 301.34064 426.84055 303.27814ZM437.1843 306.5125L437.34055 307.4344Q436.88742 307.52814 436.54367 307.52814Q435.96555 307.52814 435.65305 307.35626Q435.34055 307.16876 435.19992 306.8719Q435.07492 306.575 435.07492 305.6219L435.07492 302.04376L434.3093 302.04376L434.3093 301.23126L435.07492 301.23126L435.07492 299.6844L436.1218 299.0594L436.1218 301.23126L437.1843 301.23126L437.1843 302.04376L436.1218 302.04376L436.1218 305.6844Q436.1218 306.1375 436.16867 306.2625Q436.23117 306.3875 436.35617 306.46564Q436.48117 306.54376 436.71555 306.54376Q436.90305 306.54376 437.1843 306.5125ZM437.88742 307.45L437.88742 298.85626L438.9343 298.85626L438.9343 301.9344Q439.66867 301.09064 440.79367 301.09064Q441.4968 301.09064 441.9968 301.3719Q442.51242 301.6375 442.73117 302.1219Q442.94992 302.59064 442.94992 303.5125L442.94992 307.45L441.90305 307.45L441.90305 303.5125Q441.90305 302.71564 441.5593 302.35626Q441.21555 301.9969 440.59055 301.9969Q440.1218 301.9969 439.69992 302.2469Q439.29367 302.48126 439.10617 302.90314Q438.9343 303.3094 438.9343 304.04376L438.9343 307.45L437.88742 307.45ZM449.13742 305.45L450.23117 305.575Q449.98117 306.52814 449.27805 307.0594Q448.57492 307.59064 447.4968 307.59064Q446.13742 307.59064 445.32492 306.7469Q444.52805 305.90314 444.52805 304.3875Q444.52805 302.825 445.34055 301.96564Q446.15305 301.09064 447.4343 301.09064Q448.6843 301.09064 449.46555 301.9344Q450.26242 302.77814 450.26242 304.325Q450.26242 304.41876 450.26242 304.60626L445.6218 304.60626Q445.6843 305.6375 446.19992 306.1844Q446.71555 306.71564 447.4968 306.71564Q448.07492 306.71564 448.48117 306.41876Q448.90305 306.10626 449.13742 305.45ZM445.6843 303.7469L449.15305 303.7469Q449.09055 302.95 448.76242 302.5594Q448.2468 301.95 447.44992 301.95Q446.71555 301.95 446.21555 302.4344Q445.73117 302.91876 445.6843 303.7469ZM451.8718 307.45L451.8718 301.23126L452.82492 301.23126L452.82492 302.16876Q453.1843 301.5125 453.48117 301.3094Q453.79367 301.09064 454.16867 301.09064Q454.69992 301.09064 455.2468 301.41876L454.88742 302.40314Q454.4968 302.16876 454.1218 302.16876Q453.76242 302.16876 453.48117 302.3875Q453.21555 302.59064 453.10617 302.96564Q452.91867 303.52814 452.91867 304.1844L452.91867 307.45L451.8718 307.45Z" fill-rule="nonzero"/><path fill="#000000" d="M412.88742 321.45L412.88742 315.23126L413.82492 315.23126L413.82492 316.10626Q414.1218 315.6375 414.60617 315.3719Q415.09055 315.09064 415.71555 315.09064Q416.40305 315.09064 416.84055 315.3719Q417.29367 315.65314 417.46555 316.16876Q418.21555 315.09064 419.38742 315.09064Q420.32492 315.09064 420.8093 315.60626Q421.3093 316.10626 421.3093 317.1844L421.3093 321.45L420.26242 321.45L420.26242 317.52814Q420.26242 316.90314 420.15305 316.6219Q420.0593 316.34064 419.79367 316.16876Q419.52805 315.9969 419.15305 315.9969Q418.4968 315.9969 418.0593 316.4344Q417.63742 316.8719 417.63742 317.84064L417.63742 321.45L416.57492 321.45L416.57492 317.40314Q416.57492 316.7 416.3093 316.35626Q416.0593 315.9969 415.48117 315.9969Q415.02805 315.9969 414.65305 316.23126Q414.27805 316.46564 414.10617 316.91876Q413.9343 317.3719 413.9343 318.21564L413.9343 321.45L412.88742 321.45ZM426.96555 321.45L426.96555 320.52814Q426.23117 321.59064 424.98117 321.59064Q424.4343 321.59064 423.94992 321.3875Q423.48117 321.16876 423.2468 320.85626Q423.01242 320.52814 422.91867 320.0594Q422.85617 319.7625 422.85617 319.075L422.85617 315.23126L423.91867 315.23126L423.91867 318.6844Q423.91867 319.4969 423.98117 319.79376Q424.07492 320.2 424.38742 320.45Q424.71555 320.6844 425.19992 320.6844Q425.66867 320.6844 426.07492 320.45Q426.4968 320.2 426.66867 319.77814Q426.85617 319.35626 426.85617 318.5594L426.85617 315.23126L427.90305 315.23126L427.90305 321.45L426.96555 321.45ZM429.85617 321.45L429.85617 312.85626L430.91867 312.85626L430.91867 321.45L429.85617 321.45ZM435.1843 320.5125L435.34055 321.4344Q434.88742 321.52814 434.54367 321.52814Q433.96555 321.52814 433.65305 321.35626Q433.34055 321.16876 433.19992 320.8719Q433.07492 320.575 433.07492 319.6219L433.07492 316.04376L432.3093 316.04376L432.3093 315.23126L433.07492 315.23126L433.07492 313.6844L434.1218 313.0594L434.1218 315.23126L435.1843 315.23126L435.1843 316.04376L434.1218 316.04376L434.1218 319.6844Q434.1218 320.1375 434.16867 320.2625Q434.23117 320.3875 434.35617 320.46564Q434.48117 320.54376 434.71555 320.54376Q434.90305 320.54376 435.1843 320.5125ZM435.88742 314.075L435.88742 312.85626L436.94992 312.85626L436.94992 314.075L435.88742 314.075ZM435.88742 321.45L435.88742 315.23126L436.94992 315.23126L436.94992 321.45L435.88742 321.45ZM438.8718 321.45L438.8718 315.23126L439.82492 315.23126L439.82492 316.16876Q440.1843 315.5125 440.48117 315.3094Q440.79367 315.09064 441.16867 315.09064Q441.69992 315.09064 442.2468 315.41876L441.88742 316.40314Q441.4968 316.16876 441.1218 316.16876Q440.76242 316.16876 440.48117 316.3875Q440.21555 316.59064 440.10617 316.96564Q439.91867 317.52814 439.91867 318.1844L439.91867 321.45L438.8718 321.45ZM446.94992 320.6844Q446.35617 321.1844 445.8093 321.3875Q445.27805 321.59064 444.65305 321.59064Q443.6218 321.59064 443.07492 321.09064Q442.52805 320.59064 442.52805 319.8094Q442.52805 319.35626 442.73117 318.98126Q442.9343 318.59064 443.27805 318.3719Q443.6218 318.1375 444.04367 318.02814Q444.34055 317.9344 444.98117 317.85626Q446.2468 317.71564 446.85617 317.4969Q446.85617 317.27814 446.85617 317.23126Q446.85617 316.575 446.5593 316.3094Q446.15305 315.96564 445.35617 315.96564Q444.6218 315.96564 444.26242 316.23126Q443.90305 316.48126 443.73117 317.1375L442.69992 316.9969Q442.84055 316.34064 443.16867 315.9344Q443.4968 315.52814 444.10617 315.3094Q444.71555 315.09064 445.51242 315.09064Q446.3093 315.09064 446.8093 315.27814Q447.3093 315.46564 447.54367 315.7469Q447.77805 316.02814 447.8718 316.46564Q447.91867 316.73126 447.91867 317.4344L447.91867 318.84064Q447.91867 320.3094 447.98117 320.7Q448.0593 321.09064 448.26242 321.45L447.15305 321.45Q446.9968 321.1219 446.94992 320.6844ZM446.85617 318.325Q446.27805 318.5594 445.13742 318.73126Q444.48117 318.825 444.21555 318.95Q443.94992 319.0594 443.79367 319.27814Q443.65305 319.4969 443.65305 319.77814Q443.65305 320.2 443.96555 320.48126Q444.29367 320.7625 444.90305 320.7625Q445.51242 320.7625 445.98117 320.4969Q446.46555 320.23126 446.6843 319.7625Q446.85617 319.40314 446.85617 318.71564L446.85617 318.325ZM453.94992 319.16876L454.98117 319.3094Q454.8093 320.3719 454.10617 320.98126Q453.40305 321.59064 452.38742 321.59064Q451.10617 321.59064 450.32492 320.7625Q449.5593 319.91876 449.5593 318.35626Q449.5593 317.35626 449.88742 316.60626Q450.23117 315.84064 450.90305 315.46564Q451.59055 315.09064 452.40305 315.09064Q453.40305 315.09064 454.04367 315.60626Q454.69992 316.10626 454.88742 317.0594L453.85617 317.21564Q453.71555 316.59064 453.34055 316.27814Q452.96555 315.95 452.4343 315.95Q451.63742 315.95 451.13742 316.52814Q450.63742 317.09064 450.63742 318.325Q450.63742 319.59064 451.1218 320.15314Q451.60617 320.71564 452.3718 320.71564Q452.9968 320.71564 453.40305 320.34064Q453.82492 319.96564 453.94992 319.16876ZM455.88742 314.075L455.88742 312.85626L456.94992 312.85626L456.94992 314.075L455.88742 314.075ZM455.88742 321.45L455.88742 315.23126L456.94992 315.23126L456.94992 321.45L455.88742 321.45ZM462.94992 320.6844Q462.35617 321.1844 461.8093 321.3875Q461.27805 321.59064 460.65305 321.59064Q459.6218 321.59064 459.07492 321.09064Q458.52805 320.59064 458.52805 319.8094Q458.52805 319.35626 458.73117 318.98126Q458.9343 318.59064 459.27805 318.3719Q459.6218 318.1375 460.04367 318.02814Q460.34055 317.9344 460.98117 317.85626Q462.2468 317.71564 462.85617 317.4969Q462.85617 317.27814 462.85617 317.23126Q462.85617 316.575 462.5593 316.3094Q462.15305 315.96564 461.35617 315.96564Q460.6218 315.96564 460.26242 316.23126Q459.90305 316.48126 459.73117 317.1375L458.69992 316.9969Q458.84055 316.34064 459.16867 315.9344Q459.4968 315.52814 460.10617 315.3094Q460.71555 315.09064 461.51242 315.09064Q462.3093 315.09064 462.8093 315.27814Q463.3093 315.46564 463.54367 315.7469Q463.77805 316.02814 463.8718 316.46564Q463.91867 316.73126 463.91867 317.4344L463.91867 318.84064Q463.91867 320.3094 463.98117 320.7Q464.0593 321.09064 464.26242 321.45L463.15305 321.45Q462.9968 321.1219 462.94992 320.6844ZM462.85617 318.325Q462.27805 318.5594 461.13742 318.73126Q460.48117 318.825 460.21555 318.95Q459.94992 319.0594 459.79367 319.27814Q459.65305 319.4969 459.65305 319.77814Q459.65305 320.2 459.96555 320.48126Q460.29367 320.7625 460.90305 320.7625Q461.51242 320.7625 461.98117 320.4969Q462.46555 320.23126 462.6843 319.7625Q462.85617 319.40314 462.85617 318.71564L462.85617 318.325ZM465.85617 321.45L465.85617 312.85626L466.91867 312.85626L466.91867 321.45L465.85617 321.45Z" fill-rule="nonzero"/><path fill="#000000" d="M421.88742 337.84064L421.88742 329.23126L422.84055 329.23126L422.84055 330.02814Q423.1843 329.5594 423.60617 329.325Q424.04367 329.09064 424.65305 329.09064Q425.44992 329.09064 426.0593 329.4969Q426.66867 329.90314 426.96555 330.65314Q427.27805 331.40314 427.27805 332.29376Q427.27805 333.2469 426.9343 334.0125Q426.60617 334.77814 425.94992 335.1844Q425.29367 335.59064 424.57492 335.59064Q424.04367 335.59064 423.6218 335.3719Q423.19992 335.1375 422.9343 334.8094L422.9343 337.84064L421.88742 337.84064ZM422.84055 332.3719Q422.84055 333.575 423.32492 334.15314Q423.8093 334.71564 424.4968 334.71564Q425.19992 334.71564 425.69992 334.1219Q426.19992 333.52814 426.19992 332.27814Q426.19992 331.09064 425.71555 330.5125Q425.23117 329.91876 424.54367 329.91876Q423.8718 329.91876 423.35617 330.54376Q422.84055 331.16876 422.84055 332.3719ZM433.13742 333.45L434.23117 333.575Q433.98117 334.52814 433.27805 335.0594Q432.57492 335.59064 431.4968 335.59064Q430.13742 335.59064 429.32492 334.7469Q428.52805 333.90314 428.52805 332.3875Q428.52805 330.825 429.34055 329.96564Q430.15305 329.09064 431.4343 329.09064Q432.6843 329.09064 433.46555 329.9344Q434.26242 330.77814 434.26242 332.325Q434.26242 332.41876 434.26242 332.60626L429.6218 332.60626Q429.6843 333.6375 430.19992 334.1844Q430.71555 334.71564 431.4968 334.71564Q432.07492 334.71564 432.48117 334.41876Q432.90305 334.10626 433.13742 333.45ZM429.6843 331.7469L433.15305 331.7469Q433.09055 330.95 432.76242 330.5594Q432.2468 329.95 431.44992 329.95Q430.71555 329.95 430.21555 330.4344Q429.73117 330.91876 429.6843 331.7469ZM435.4968 332.34064Q435.4968 330.60626 436.44992 329.77814Q437.2468 329.09064 438.40305 329.09064Q439.6843 329.09064 440.4968 329.9344Q441.32492 330.7625 441.32492 332.2469Q441.32492 333.45 440.96555 334.1375Q440.60617 334.825 439.90305 335.21564Q439.21555 335.59064 438.40305 335.59064Q437.10617 335.59064 436.29367 334.7625Q435.4968 333.91876 435.4968 332.34064ZM436.57492 332.34064Q436.57492 333.52814 437.09055 334.1219Q437.6218 334.71564 438.40305 334.71564Q439.19992 334.71564 439.71555 334.1219Q440.23117 333.52814 440.23117 332.3094Q440.23117 331.15314 439.69992 330.5594Q439.1843 329.96564 438.40305 329.96564Q437.6218 329.96564 437.09055 330.5594Q436.57492 331.1375 436.57492 332.34064ZM442.88742 337.84064L442.88742 329.23126L443.84055 329.23126L443.84055 330.02814Q444.1843 329.5594 444.60617 329.325Q445.04367 329.09064 445.65305 329.09064Q446.44992 329.09064 447.0593 329.4969Q447.66867 329.90314 447.96555 330.65314Q448.27805 331.40314 448.27805 332.29376Q448.27805 333.2469 447.9343 334.0125Q447.60617 334.77814 446.94992 335.1844Q446.29367 335.59064 445.57492 335.59064Q445.04367 335.59064 444.6218 335.3719Q444.19992 335.1375 443.9343 334.8094L443.9343 337.84064L442.88742 337.84064ZM443.84055 332.3719Q443.84055 333.575 444.32492 334.15314Q444.8093 334.71564 445.4968 334.71564Q446.19992 334.71564 446.69992 334.1219Q447.19992 333.52814 447.19992 332.27814Q447.19992 331.09064 446.71555 330.5125Q446.23117 329.91876 445.54367 329.91876Q444.8718 329.91876 444.35617 330.54376Q443.84055 331.16876 443.84055 332.3719ZM449.85617 335.45L449.85617 326.85626L450.91867 326.85626L450.91867 335.45L449.85617 335.45ZM457.13742 333.45L458.23117 333.575Q457.98117 334.52814 457.27805 335.0594Q456.57492 335.59064 455.4968 335.59064Q454.13742 335.59064 453.32492 334.7469Q452.52805 333.90314 452.52805 332.3875Q452.52805 330.825 453.34055 329.96564Q454.15305 329.09064 455.4343 329.09064Q456.6843 329.09064 457.46555 329.9344Q458.26242 330.77814 458.26242 332.325Q458.26242 332.41876 458.26242 332.60626L453.6218 332.60626Q453.6843 333.6375 454.19992 334.1844Q454.71555 334.71564 455.4968 334.71564Q456.07492 334.71564 456.48117 334.41876Q456.90305 334.10626 457.13742 333.45ZM453.6843 331.7469L457.15305 331.7469Q457.09055 330.95 456.76242 330.5594Q456.2468 329.95 455.44992 329.95Q454.71555 329.95 454.21555 330.4344Q453.73117 330.91876 453.6843 331.7469Z" fill-rule="nonzero"/><path fill="#000000" d="M402.3718 349.45L402.3718 343.23126L403.32492 343.23126L403.32492 344.16876Q403.6843 343.5125 403.98117 343.3094Q404.29367 343.09064 404.66867 343.09064Q405.19992 343.09064 405.7468 343.41876L405.38742 344.40314Q404.9968 344.16876 404.6218 344.16876Q404.26242 344.16876 403.98117 344.3875Q403.71555 344.59064 403.60617 344.96564Q403.41867 345.52814 403.41867 346.1844L403.41867 349.45L402.3718 349.45ZM410.63742 347.45L411.73117 347.575Q411.48117 348.52814 410.77805 349.0594Q410.07492 349.59064 408.9968 349.59064Q407.63742 349.59064 406.82492 348.7469Q406.02805 347.90314 406.02805 346.3875Q406.02805 344.825 406.84055 343.96564Q407.65305 343.09064 408.9343 343.09064Q410.1843 343.09064 410.96555 343.9344Q411.76242 344.77814 411.76242 346.325Q411.76242 346.41876 411.76242 346.60626L407.1218 346.60626Q407.1843 347.6375 407.69992 348.1844Q408.21555 348.71564 408.9968 348.71564Q409.57492 348.71564 409.98117 348.41876Q410.40305 348.10626 410.63742 347.45ZM407.1843 345.7469L410.65305 345.7469Q410.59055 344.95 410.26242 344.5594Q409.7468 343.95 408.94992 343.95Q408.21555 343.95 407.71555 344.4344Q407.23117 344.91876 407.1843 345.7469ZM413.35617 349.45L413.35617 340.85626L414.41867 340.85626L414.41867 349.45L413.35617 349.45ZM420.44992 348.6844Q419.85617 349.1844 419.3093 349.3875Q418.77805 349.59064 418.15305 349.59064Q417.1218 349.59064 416.57492 349.09064Q416.02805 348.59064 416.02805 347.8094Q416.02805 347.35626 416.23117 346.98126Q416.4343 346.59064 416.77805 346.3719Q417.1218 346.1375 417.54367 346.02814Q417.84055 345.9344 418.48117 345.85626Q419.7468 345.71564 420.35617 345.4969Q420.35617 345.27814 420.35617 345.23126Q420.35617 344.575 420.0593 344.3094Q419.65305 343.96564 418.85617 343.96564Q418.1218 343.96564 417.76242 344.23126Q417.40305 344.48126 417.23117 345.1375L416.19992 344.9969Q416.34055 344.34064 416.66867 343.9344Q416.9968 343.52814 417.60617 343.3094Q418.21555 343.09064 419.01242 343.09064Q419.8093 343.09064 420.3093 343.27814Q420.8093 343.46564 421.04367 343.7469Q421.27805 344.02814 421.3718 344.46564Q421.41867 344.73126 421.41867 345.4344L421.41867 346.84064Q421.41867 348.3094 421.48117 348.7Q421.5593 349.09064 421.76242 349.45L420.65305 349.45Q420.4968 349.1219 420.44992 348.6844ZM420.35617 346.325Q419.77805 346.5594 418.63742 346.73126Q417.98117 346.825 417.71555 346.95Q417.44992 347.0594 417.29367 347.27814Q417.15305 347.4969 417.15305 347.77814Q417.15305 348.2 417.46555 348.48126Q417.79367 348.7625 418.40305 348.7625Q419.01242 348.7625 419.48117 348.4969Q419.96555 348.23126 420.1843 347.7625Q420.35617 347.40314 420.35617 346.71564L420.35617 346.325ZM425.6843 348.5125L425.84055 349.4344Q425.38742 349.52814 425.04367 349.52814Q424.46555 349.52814 424.15305 349.35626Q423.84055 349.16876 423.69992 348.8719Q423.57492 348.575 423.57492 347.6219L423.57492 344.04376L422.8093 344.04376L422.8093 343.23126L423.57492 343.23126L423.57492 341.6844L424.6218 341.0594L424.6218 343.23126L425.6843 343.23126L425.6843 344.04376L424.6218 344.04376L424.6218 347.6844Q424.6218 348.1375 424.66867 348.2625Q424.73117 348.3875 424.85617 348.46564Q424.98117 348.54376 425.21555 348.54376Q425.40305 348.54376 425.6843 348.5125ZM426.38742 342.075L426.38742 340.85626L427.44992 340.85626L427.44992 342.075L426.38742 342.075ZM426.38742 349.45L426.38742 343.23126L427.44992 343.23126L427.44992 349.45L426.38742 349.45ZM429.38742 349.45L429.38742 343.23126L430.32492 343.23126L430.32492 344.10626Q431.01242 343.09064 432.3093 343.09064Q432.8718 343.09064 433.34055 343.29376Q433.82492 343.4969 434.0593 343.825Q434.29367 344.15314 434.38742 344.59064Q434.4343 344.8875 434.4343 345.6219L434.4343 349.45L433.38742 349.45L433.38742 345.66876Q433.38742 345.0125 433.26242 344.7Q433.13742 344.3875 432.82492 344.2Q432.51242 343.9969 432.09055 343.9969Q431.41867 343.9969 430.91867 344.4344Q430.4343 344.85626 430.4343 346.04376L430.4343 349.45L429.38742 349.45ZM436.1843 349.96564L437.21555 350.1219Q437.27805 350.59064 437.57492 350.8094Q437.96555 351.10626 438.63742 351.10626Q439.3718 351.10626 439.76242 350.8094Q440.16867 350.5125 440.3093 349.9969Q440.40305 349.66876 440.38742 348.6375Q439.69992 349.45 438.66867 349.45Q437.38742 349.45 436.6843 348.52814Q435.98117 347.59064 435.98117 346.3094Q435.98117 345.41876 436.29367 344.66876Q436.6218 343.90314 437.23117 343.4969Q437.84055 343.09064 438.66867 343.09064Q439.77805 343.09064 440.4968 343.98126L440.4968 343.23126L441.46555 343.23126L441.46555 348.60626Q441.46555 350.0594 441.16867 350.66876Q440.8718 351.27814 440.23117 351.6219Q439.59055 351.98126 438.65305 351.98126Q437.54367 351.98126 436.85617 351.48126Q436.16867 350.98126 436.1843 349.96564ZM437.0593 346.23126Q437.0593 347.45 437.54367 348.0125Q438.02805 348.575 438.76242 348.575Q439.4968 348.575 439.98117 348.0125Q440.48117 347.45 440.48117 346.2625Q440.48117 345.1219 439.96555 344.54376Q439.46555 343.96564 438.7468 343.96564Q438.04367 343.96564 437.54367 344.54376Q437.0593 345.10626 437.0593 346.23126ZM448.6843 348.5125L448.84055 349.4344Q448.38742 349.52814 448.04367 349.52814Q447.46555 349.52814 447.15305 349.35626Q446.84055 349.16876 446.69992 348.8719Q446.57492 348.575 446.57492 347.6219L446.57492 344.04376L445.8093 344.04376L445.8093 343.23126L446.57492 343.23126L446.57492 341.6844L447.6218 341.0594L447.6218 343.23126L448.6843 343.23126L448.6843 344.04376L447.6218 344.04376L447.6218 347.6844Q447.6218 348.1375 447.66867 348.2625Q447.73117 348.3875 447.85617 348.46564Q447.98117 348.54376 448.21555 348.54376Q448.40305 348.54376 448.6843 348.5125ZM448.9968 346.34064Q448.9968 344.60626 449.94992 343.77814Q450.7468 343.09064 451.90305 343.09064Q453.1843 343.09064 453.9968 343.9344Q454.82492 344.7625 454.82492 346.2469Q454.82492 347.45 454.46555 348.1375Q454.10617 348.825 453.40305 349.21564Q452.71555 349.59064 451.90305 349.59064Q450.60617 349.59064 449.79367 348.7625Q448.9968 347.91876 448.9968 346.34064ZM450.07492 346.34064Q450.07492 347.52814 450.59055 348.1219Q451.1218 348.71564 451.90305 348.71564Q452.69992 348.71564 453.21555 348.1219Q453.73117 347.52814 453.73117 346.3094Q453.73117 345.15314 453.19992 344.5594Q452.6843 343.96564 451.90305 343.96564Q451.1218 343.96564 450.59055 344.5594Q450.07492 345.1375 450.07492 346.34064ZM459.38742 349.45L459.38742 340.85626L460.4343 340.85626L460.4343 343.9344Q461.16867 343.09064 462.29367 343.09064Q462.9968 343.09064 463.4968 343.3719Q464.01242 343.6375 464.23117 344.1219Q464.44992 344.59064 464.44992 345.5125L464.44992 349.45L463.40305 349.45L463.40305 345.5125Q463.40305 344.71564 463.0593 344.35626Q462.71555 343.9969 462.09055 343.9969Q461.6218 343.9969 461.19992 344.2469Q460.79367 344.48126 460.60617 344.90314Q460.4343 345.3094 460.4343 346.04376L460.4343 349.45L459.38742 349.45ZM466.38742 342.075L466.38742 340.85626L467.44992 340.85626L467.44992 342.075L466.38742 342.075ZM466.38742 349.45L466.38742 343.23126L467.44992 343.23126L467.44992 349.45L466.38742 349.45ZM469.38742 349.45L469.38742 343.23126L470.32492 343.23126L470.32492 344.10626Q470.6218 343.6375 471.10617 343.3719Q471.59055 343.09064 472.21555 343.09064Q472.90305 343.09064 473.34055 343.3719Q473.79367 343.65314 473.96555 344.16876Q474.71555 343.09064 475.88742 343.09064Q476.82492 343.09064 477.3093 343.60626Q477.8093 344.10626 477.8093 345.1844L477.8093 349.45L476.76242 349.45L476.76242 345.52814Q476.76242 344.90314 476.65305 344.6219Q476.5593 344.34064 476.29367 344.16876Q476.02805 343.9969 475.65305 343.9969Q474.9968 343.9969 474.5593 344.4344Q474.13742 344.8719 474.13742 345.84064L474.13742 349.45L473.07492 349.45L473.07492 345.40314Q473.07492 344.7 472.8093 344.35626Q472.5593 343.9969 471.98117 343.9969Q471.52805 343.9969 471.15305 344.23126Q470.77805 344.46564 470.60617 344.91876Q470.4343 345.3719 470.4343 346.21564L470.4343 349.45L469.38742 349.45Z" fill-rule="nonzero"/><path fill="#000000" d="M510.06238 303.2625Q510.06238 301.1219 511.203 299.91876Q512.35925 298.7 514.17175 298.7Q515.3749 298.7 516.328 299.27814Q517.2811 299.84064 517.7811 300.85626Q518.2811 301.8719 518.2811 303.16876Q518.2811 304.46564 517.7499 305.4969Q517.2186 306.52814 516.2499 307.0594Q515.29675 307.59064 514.17175 307.59064Q512.953 307.59064 511.99988 307.0125Q511.04675 306.41876 510.54675 305.41876Q510.06238 304.40314 510.06238 303.2625ZM511.23425 303.27814Q511.23425 304.84064 512.0624 305.73126Q512.9061 306.6219 514.17175 306.6219Q515.453 306.6219 516.2811 305.73126Q517.10925 304.825 517.10925 303.15314Q517.10925 302.10626 516.7499 301.325Q516.4061 300.54376 515.7186 300.1219Q515.0311 299.6844 514.1874 299.6844Q512.98425 299.6844 512.10925 300.5125Q511.23425 301.34064 511.23425 303.27814ZM521.578 306.5125L521.73425 307.4344Q521.2811 307.52814 520.9374 307.52814Q520.35925 307.52814 520.04675 307.35626Q519.73425 307.16876 519.5936 306.8719Q519.4686 306.575 519.4686 305.6219L519.4686 302.04376L518.703 302.04376L518.703 301.23126L519.4686 301.23126L519.4686 299.6844L520.5155 299.0594L520.5155 301.23126L521.578 301.23126L521.578 302.04376L520.5155 302.04376L520.5155 305.6844Q520.5155 306.1375 520.5624 306.2625Q520.6249 306.3875 520.7499 306.46564Q520.8749 306.54376 521.10925 306.54376Q521.29675 306.54376 521.578 306.5125ZM522.2811 307.45L522.2811 298.85626L523.328 298.85626L523.328 301.9344Q524.0624 301.09064 525.1874 301.09064Q525.8905 301.09064 526.3905 301.3719Q526.9061 301.6375 527.1249 302.1219Q527.3436 302.59064 527.3436 303.5125L527.3436 307.45L526.29675 307.45L526.29675 303.5125Q526.29675 302.71564 525.953 302.35626Q525.60925 301.9969 524.98425 301.9969Q524.5155 301.9969 524.0936 302.2469Q523.6874 302.48126 523.4999 302.90314Q523.328 303.3094 523.328 304.04376L523.328 307.45L522.2811 307.45ZM533.5311 305.45L534.6249 305.575Q534.3749 306.52814 533.67175 307.0594Q532.9686 307.59064 531.8905 307.59064Q530.5311 307.59064 529.7186 306.7469Q528.92175 305.90314 528.92175 304.3875Q528.92175 302.825 529.73425 301.96564Q530.54675 301.09064 531.828 301.09064Q533.078 301.09064 533.85925 301.9344Q534.6561 302.77814 534.6561 304.325Q534.6561 304.41876 534.6561 304.60626L530.0155 304.60626Q530.078 305.6375 530.5936 306.1844Q531.10925 306.71564 531.8905 306.71564Q532.4686 306.71564 532.8749 306.41876Q533.29675 306.10626 533.5311 305.45ZM530.078 303.7469L533.54675 303.7469Q533.48425 302.95 533.1561 302.5594Q532.6405 301.95 531.8436 301.95Q531.10925 301.95 530.60925 302.4344Q530.1249 302.91876 530.078 303.7469ZM536.2655 307.45L536.2655 301.23126L537.2186 301.23126L537.2186 302.16876Q537.578 301.5125 537.8749 301.3094Q538.1874 301.09064 538.5624 301.09064Q539.0936 301.09064 539.6405 301.41876L539.2811 302.40314Q538.8905 302.16876 538.5155 302.16876Q538.1561 302.16876 537.8749 302.3875Q537.60925 302.59064 537.4999 302.96564Q537.3124 303.52814 537.3124 304.1844L537.3124 307.45L536.2655 307.45Z" fill-rule="nonzero"/><path fill="#757575" d="M28.503124 26.7375L26.753124 26.878124Q26.51875 25.846874 26.096874 25.378124Q25.378124 24.6125 24.33125 24.6125Q23.4875 24.6125 22.8625 25.08125Q22.034374 25.690624 21.55 26.8625Q21.065624 28.01875 21.05 30.159374Q21.690624 29.20625 22.596874 28.7375Q23.51875 28.26875 24.534374 28.26875Q26.284374 28.26875 27.51875 29.565624Q28.753124 30.846874 28.753124 32.89375Q28.753124 34.253124 28.175 35.409374Q27.596874 36.565624 26.58125 37.190624Q25.565624 37.8 24.26875 37.8Q22.08125 37.8 20.690624 36.190624Q19.3 34.565624 19.3 30.846874Q19.3 26.70625 20.83125 24.815624Q22.175 23.175 24.440624 23.175Q26.128124 23.175 27.20625 24.128124Q28.284374 25.065624 28.503124 26.7375ZM21.33125 32.909374Q21.33125 33.815624 21.70625 34.64375Q22.096874 35.471874 22.784374 35.909374Q23.4875 36.346874 24.2375 36.346874Q25.3625 36.346874 26.159374 35.45625Q26.95625 34.55 26.95625 33.003124Q26.95625 31.51875 26.159374 30.675Q25.378124 29.815624 24.175 29.815624Q22.9875 29.815624 22.159374 30.675Q21.33125 31.51875 21.33125 32.909374ZM30.378124 33.8L32.221874 33.64375Q32.425 34.9875 33.175 35.675Q33.925 36.346874 34.9875 36.346874Q36.253124 36.346874 37.128124 35.39375Q38.003124 34.440624 38.003124 32.846874Q38.003124 31.346874 37.159374 30.4875Q36.315624 29.6125 34.95625 29.6125Q34.096874 29.6125 33.409374 30.003124Q32.7375 30.378124 32.346874 31.003124L30.690624 30.784374L32.08125 23.425L39.20625 23.425L39.20625 25.1125L33.4875 25.1125L32.721874 28.95625Q34.003124 28.05 35.425 28.05Q37.3 28.05 38.58125 29.3625Q39.878124 30.659374 39.878124 32.690624Q39.878124 34.64375 38.7375 36.05Q37.3625 37.8 34.9875 37.8Q33.034374 37.8 31.784374 36.70625Q30.55 35.6125 30.378124 33.8ZM48.128124 37.55L48.128124 23.2375L54.471874 23.2375Q56.378124 23.2375 57.378124 23.628124Q58.378124 24.003124 58.971874 24.9875Q59.565624 25.95625 59.565624 27.14375Q59.565624 28.659374 58.58125 29.70625Q57.596874 30.753124 55.534374 31.034374Q56.284374 31.39375 56.675 31.753124Q57.503124 32.503124 58.253124 33.659374L60.7375 37.55L58.3625 37.55L56.45625 34.565624Q55.628124 33.284374 55.096874 32.596874Q54.565624 31.909374 54.128124 31.64375Q53.70625 31.3625 53.26875 31.253124Q52.940624 31.190624 52.221874 31.190624L50.01875 31.190624L50.01875 37.55L48.128124 37.55ZM50.01875 29.55L54.096874 29.55Q55.39375 29.55 56.1125 29.284374Q56.846874 29.01875 57.221874 28.425Q57.6125 27.83125 57.6125 27.14375Q57.6125 26.128124 56.878124 25.471874Q56.14375 24.815624 54.55 24.815624L50.01875 24.815624L50.01875 29.55ZM68.64375 36.26875Q67.65938 37.096874 66.75313 37.440624Q65.84688 37.784374 64.81563 37.784374Q63.1125 37.784374 62.190624 36.95625Q61.26875 36.1125 61.26875 34.815624Q61.26875 34.05 61.6125 33.425Q61.971874 32.8 62.534374 32.425Q63.096874 32.034374 63.8 31.83125Q64.31563 31.70625 65.3625 31.565624Q67.4875 31.315624 68.4875 30.971874Q68.50313 30.6125 68.50313 30.503124Q68.50313 29.440624 68.00313 28.9875Q67.33125 28.39375 66.00313 28.39375Q64.75313 28.39375 64.15938 28.83125Q63.58125 29.26875 63.3 30.378124L61.58125 30.14375Q61.815624 29.034374 62.346874 28.3625Q62.878124 27.675 63.89375 27.315624Q64.90938 26.940624 66.25313 26.940624Q67.58125 26.940624 68.40938 27.253124Q69.2375 27.565624 69.62813 28.05Q70.01875 28.51875 70.175 29.2375Q70.26875 29.690624 70.26875 30.8625L70.26875 33.20625Q70.26875 35.659374 70.37813 36.315624Q70.4875 36.95625 70.83125 37.55L68.9875 37.55Q68.72188 37.003124 68.64375 36.26875ZM68.4875 32.346874Q67.53438 32.7375 65.6125 33.003124Q64.53438 33.159374 64.08125 33.3625Q63.64375 33.55 63.39375 33.925Q63.14375 34.3 63.14375 34.76875Q63.14375 35.471874 63.675 35.940624Q64.20625 36.409374 65.2375 36.409374Q66.25313 36.409374 67.03438 35.971874Q67.83125 35.51875 68.20625 34.753124Q68.4875 34.14375 68.4875 32.9875L68.4875 32.346874ZM72.8625 37.55L72.8625 27.175L74.45625 27.175L74.45625 28.659374Q75.59688 26.940624 77.75313 26.940624Q78.69063 26.940624 79.47188 27.284374Q80.26875 27.6125 80.65938 28.159374Q81.05 28.70625 81.20625 29.45625Q81.3 29.95625 81.3 31.175L81.3 37.55L79.53438 37.55L79.53438 31.2375Q79.53438 30.159374 79.33125 29.628124Q79.12813 29.096874 78.59688 28.784374Q78.08125 28.471874 77.37813 28.471874Q76.25313 28.471874 75.44063 29.190624Q74.62813 29.89375 74.62813 31.878124L74.62813 37.55L72.8625 37.55ZM90.59688 37.55L90.59688 36.2375Q89.6125 37.784374 87.69063 37.784374Q86.45625 37.784374 85.40938 37.096874Q84.37813 36.409374 83.8 35.190624Q83.2375 33.971874 83.2375 32.378124Q83.2375 30.815624 83.75313 29.55Q84.26875 28.284374 85.3 27.6125Q86.34688 26.940624 87.6125 26.940624Q88.55 26.940624 89.28438 27.346874Q90.01875 27.7375 90.4875 28.3625L90.4875 23.2375L92.22188 23.2375L92.22188 37.55L90.59688 37.55ZM85.03438 32.378124Q85.03438 34.3625 85.87813 35.346874Q86.72188 36.33125 87.8625 36.33125Q89.01875 36.33125 89.81563 35.39375Q90.62813 34.45625 90.62813 32.51875Q90.62813 30.39375 89.8 29.39375Q88.9875 28.39375 87.78438 28.39375Q86.6125 28.39375 85.81563 29.3625Q85.03438 30.315624 85.03438 32.378124ZM94.22188 32.3625Q94.22188 29.4875 95.81563 28.096874Q97.15938 26.940624 99.08125 26.940624Q101.22188 26.940624 102.56563 28.346874Q103.925 29.753124 103.925 32.221874Q103.925 34.221874 103.33125 35.378124Q102.7375 36.51875 101.58125 37.159374Q100.44063 37.784374 99.08125 37.784374Q96.89375 37.784374 95.55 36.39375Q94.22188 34.9875 94.22188 32.3625ZM96.01875 32.3625Q96.01875 34.3625 96.87813 35.346874Q97.75313 36.33125 99.08125 36.33125Q100.39375 36.33125 101.25313 35.346874Q102.12813 34.346874 102.12813 32.3Q102.12813 30.378124 101.25313 29.39375Q100.37813 28.39375 99.08125 28.39375Q97.75313 28.39375 96.87813 29.39375Q96.01875 30.378124 96.01875 32.3625ZM105.8625 37.55L105.8625 27.175L107.44063 27.175L107.44063 28.628124Q107.925 27.878124 108.7375 27.409374Q109.55 26.940624 110.58125 26.940624Q111.7375 26.940624 112.47188 27.425Q113.20625 27.89375 113.51875 28.753124Q114.75313 26.940624 116.72188 26.940624Q118.26875 26.940624 119.09688 27.8Q119.925 28.659374 119.925 30.425L119.925 37.55L118.175 37.55L118.175 31.01875Q118.175 29.95625 118.00313 29.503124Q117.83125 29.034374 117.37813 28.753124Q116.94063 28.471874 116.33125 28.471874Q115.2375 28.471874 114.50313 29.20625Q113.78438 29.925 113.78438 31.51875L113.78438 37.55L112.03438 37.55L112.03438 30.815624Q112.03438 29.64375 111.59688 29.065624Q111.175 28.471874 110.19063 28.471874Q109.45625 28.471874 108.81563 28.8625Q108.19063 29.253124 107.90938 30.003124Q107.62813 30.753124 107.62813 32.175L107.62813 37.55L105.8625 37.55ZM139.31563 32.534374L141.20625 33.003124Q140.6125 35.346874 139.06563 36.58125Q137.51875 37.8 135.26875 37.8Q132.95625 37.8 131.50313 36.8625Q130.06563 35.909374 129.3 34.128124Q128.55 32.33125 128.55 30.284374Q128.55 28.05 129.39375 26.39375Q130.25313 24.721874 131.83125 23.8625Q133.40938 22.9875 135.3 22.9875Q137.45625 22.9875 138.90938 24.08125Q140.37813 25.175 140.95625 27.159374L139.09688 27.596874Q138.59688 26.034374 137.64375 25.33125Q136.70625 24.6125 135.26875 24.6125Q133.6125 24.6125 132.50313 25.409374Q131.39375 26.190624 130.94063 27.534374Q130.50313 28.8625 130.50313 30.26875Q130.50313 32.096874 131.03438 33.471874Q131.56563 34.83125 132.69063 35.503124Q133.81563 36.175 135.1125 36.175Q136.70625 36.175 137.81563 35.253124Q138.925 34.33125 139.31563 32.534374ZM142.22188 32.3625Q142.22188 29.4875 143.81563 28.096874Q145.15938 26.940624 147.08125 26.940624Q149.22188 26.940624 150.56563 28.346874Q151.925 29.753124 151.925 32.221874Q151.925 34.221874 151.33125 35.378124Q150.7375 36.51875 149.58125 37.159374Q148.44063 37.784374 147.08125 37.784374Q144.89375 37.784374 143.55 36.39375Q142.22188 34.9875 142.22188 32.3625ZM144.01875 32.3625Q144.01875 34.3625 144.87813 35.346874Q145.75313 36.33125 147.08125 36.33125Q148.39375 36.33125 149.25313 35.346874Q150.12813 34.346874 150.12813 32.3Q150.12813 30.378124 149.25313 29.39375Q148.37813 28.39375 147.08125 28.39375Q145.75313 28.39375 144.87813 29.39375Q144.01875 30.378124 144.01875 32.3625ZM153.8625 37.55L153.8625 27.175L155.44063 27.175L155.44063 28.628124Q155.925 27.878124 156.7375 27.409374Q157.55 26.940624 158.58125 26.940624Q159.7375 26.940624 160.47188 27.425Q161.20625 27.89375 161.51875 28.753124Q162.75313 26.940624 164.72188 26.940624Q166.26875 26.940624 167.09688 27.8Q167.925 28.659374 167.925 30.425L167.925 37.55L166.175 37.55L166.175 31.01875Q166.175 29.95625 166.00313 29.503124Q165.83125 29.034374 165.37813 28.753124Q164.94063 28.471874 164.33125 28.471874Q163.2375 28.471874 162.50313 29.20625Q161.78438 29.925 161.78438 31.51875L161.78438 37.55L160.03438 37.55L160.03438 30.815624Q160.03438 29.64375 159.59688 29.065624Q159.175 28.471874 158.19063 28.471874Q157.45625 28.471874 156.81563 28.8625Q156.19063 29.253124 155.90938 30.003124Q155.62813 30.753124 155.62813 32.175L155.62813 37.55L153.8625 37.55ZM170.8625 37.55L170.8625 27.175L172.44063 27.175L172.44063 28.628124Q172.925 27.878124 173.7375 27.409374Q174.55 26.940624 175.58125 26.940624Q176.7375 26.940624 177.47188 27.425Q178.20625 27.89375 178.51875 28.753124Q179.75313 26.940624 181.72188 26.940624Q183.26875 26.940624 184.09688 27.8Q184.925 28.659374 184.925 30.425L184.925 37.55L183.175 37.55L183.175 31.01875Q183.175 29.95625 183.00313 29.503124Q182.83125 29.034374 182.37813 28.753124Q181.94063 28.471874 181.33125 28.471874Q180.2375 28.471874 179.50313 29.20625Q178.78438 29.925 178.78438 31.51875L178.78438 37.55L177.03438 37.55L177.03438 30.815624Q177.03438 29.64375 176.59688 29.065624Q176.175 28.471874 175.19063 28.471874Q174.45625 28.471874 173.81563 28.8625Q173.19063 29.253124 172.90938 30.003124Q172.62813 30.753124 172.62813 32.175L172.62813 37.55L170.8625 37.55ZM194.97188 34.20625L196.78438 34.440624Q196.3625 36.01875 195.19063 36.909374Q194.03438 37.784374 192.22188 37.784374Q189.95625 37.784374 188.6125 36.39375Q187.28438 34.9875 187.28438 32.45625Q187.28438 29.83125 188.62813 28.39375Q189.97188 26.940624 192.12813 26.940624Q194.20625 26.940624 195.51875 28.3625Q196.84688 29.76875 196.84688 32.346874Q196.84688 32.503124 196.83125 32.815624L189.09688 32.815624Q189.19063 34.51875 190.06563 35.425Q190.94063 36.33125 192.2375 36.33125Q193.20625 36.33125 193.87813 35.83125Q194.56563 35.315624 194.97188 34.20625ZM189.19063 31.3625L194.9875 31.3625Q194.87813 30.065624 194.33125 29.409374Q193.4875 28.39375 192.14375 28.39375Q190.94063 28.39375 190.1125 29.20625Q189.28438 30.003124 189.19063 31.3625ZM198.8625 37.55L198.8625 27.175L200.45625 27.175L200.45625 28.659374Q201.59688 26.940624 203.75313 26.940624Q204.69063 26.940624 205.47188 27.284374Q206.26875 27.6125 206.65938 28.159374Q207.05 28.70625 207.20625 29.45625Q207.3 29.95625 207.3 31.175L207.3 37.55L205.53438 37.55L205.53438 31.2375Q205.53438 30.159374 205.33125 29.628124Q205.12813 29.096874 204.59688 28.784374Q204.08125 28.471874 203.37813 28.471874Q202.25313 28.471874 201.44063 29.190624Q200.62813 29.89375 200.62813 31.878124L200.62813 37.55L198.8625 37.55ZM213.70625 35.971874L213.95625 37.534374Q213.22188 37.690624 212.62813 37.690624Q211.675 37.690624 211.14375 37.39375Q210.62813 37.08125 210.40938 36.596874Q210.19063 36.096874 210.19063 34.51875L210.19063 28.55L208.90938 28.55L208.90938 27.175L210.19063 27.175L210.19063 24.6125L211.94063 23.55L211.94063 27.175L213.70625 27.175L213.70625 28.55L211.94063 28.55L211.94063 34.6125Q211.94063 35.3625 212.03438 35.58125Q212.12813 35.784374 212.33125 35.925Q212.55 36.05 212.94063 36.05Q213.22188 36.05 213.70625 35.971874ZM215.15938 34.45625L216.90938 34.175Q217.05 35.221874 217.72188 35.784374Q218.39375 36.33125 219.59688 36.33125Q220.8 36.33125 221.37813 35.846874Q221.97188 35.346874 221.97188 34.690624Q221.97188 34.096874 221.45625 33.753124Q221.09688 33.51875 219.65938 33.159374Q217.72188 32.659374 216.97188 32.315624Q216.2375 31.95625 215.84688 31.33125Q215.45625 30.690624 215.45625 29.925Q215.45625 29.2375 215.76875 28.64375Q216.09688 28.05 216.64375 27.659374Q217.05 27.3625 217.75313 27.159374Q218.47188 26.940624 219.28438 26.940624Q220.50313 26.940624 221.425 27.3Q222.34688 27.64375 222.78438 28.253124Q223.22188 28.846874 223.39375 29.846874L221.675 30.08125Q221.55 29.284374 220.9875 28.846874Q220.425 28.39375 219.40938 28.39375Q218.19063 28.39375 217.675 28.8Q217.15938 29.190624 217.15938 29.721874Q217.15938 30.065624 217.37813 30.346874Q217.58125 30.628124 218.05 30.815624Q218.31563 30.909374 219.59688 31.253124Q221.47188 31.753124 222.20625 32.08125Q222.94063 32.39375 223.3625 33.003124Q223.78438 33.596874 223.78438 34.503124Q223.78438 35.378124 223.26875 36.159374Q222.75313 36.940624 221.78438 37.3625Q220.81563 37.784374 219.59688 37.784374Q217.58125 37.784374 216.51875 36.940624Q215.45625 36.096874 215.15938 34.45625Z" fill-rule="nonzero"/></svg>